HIERARCHY
ROOT Junyuan_V1:Solving:Hips
{
	OFFSET 0.000000 0.000000 0.000000
	CHANNELS 6 Xposition Yposition Zposition Xrotation Yrotation Zrotation
	JOINT Junyuan_V1:Solving:Spine
	{
		OFFSET 0.000000 -8.943189 2.778120
		CHANNELS 6 Xposition Yposition Zposition Xrotation Yrotation Zrotation
		JOINT Junyuan_V1:Solving:Spine1
		{
			OFFSET 0.000000 -9.944814 1.753542
			CHANNELS 6 Xposition Yposition Zposition Xrotation Yrotation Zrotation
			JOINT Junyuan_V1:Solving:Spine2
			{
				OFFSET 0.000000 -10.059801 0.880121
				CHANNELS 6 Xposition Yposition Zposition Xrotation Yrotation Zrotation
				JOINT Junyuan_V1:Solving:Spine3
				{
					OFFSET 0.000000 -10.098228 0.000000
					CHANNELS 6 Xposition Yposition Zposition Xrotation Yrotation Zrotation
					JOINT Junyuan_V1:Solving:Neck
					{
						OFFSET 0.000000 -12.983437 -1.298342
						CHANNELS 6 Xposition Yposition Zposition Xrotation Yrotation Zrotation
						JOINT Junyuan_V1:Solving:Neck1
						{
							OFFSET 0.000000 -8.085114 -0.707354
							CHANNELS 6 Xposition Yposition Zposition Xrotation Yrotation Zrotation
							JOINT Junyuan_V1:Solving:Head
							{
								OFFSET 0.000000 -7.992695 -1.409326
								CHANNELS 6 Xposition Yposition Zposition Xrotation Yrotation Zrotation
								JOINT Junyuan_V1:Solving:HeadEnd
								{
									OFFSET 0.000000 -9.728081 0.000002
									CHANNELS 6 Xposition Yposition Zposition Xrotation Yrotation Zrotation
									End Site
									{
										OFFSET 0.000000 -9.728081 0.000002
									}
								}
							}
						}
					}
					JOINT Junyuan_V1:Solving:RightShoulder
					{
						OFFSET 0.000000 -9.273884 -6.154356
						CHANNELS 6 Xposition Yposition Zposition Xrotation Yrotation Zrotation
						JOINT Junyuan_V1:Solving:RightArm
						{
							OFFSET -19.110832 -0.000008 0.000000
							CHANNELS 6 Xposition Yposition Zposition Xrotation Yrotation Zrotation
							JOINT Junyuan_V1:Solving:RightForeArm
							{
								OFFSET -27.916382 -0.000008 0.000000
								CHANNELS 6 Xposition Yposition Zposition Xrotation Yrotation Zrotation
								JOINT Junyuan_V1:Solving:RightHand
								{
									OFFSET -21.757072 -0.000008 0.000000
									CHANNELS 6 Xposition Yposition Zposition Xrotation Yrotation Zrotation
									JOINT Junyuan_V1:Solving:RightHandThumb1
									{
										OFFSET -3.656471 2.766285 -2.718907
										CHANNELS 6 Xposition Yposition Zposition Xrotation Yrotation Zrotation
										End Site
										{
											OFFSET -5.307442 0.000000 -5.356520
										}
									}
									JOINT Junyuan_V1:Solving:RightHandMiddle1
									{
										OFFSET -9.750572 -0.000004 0.062504
										CHANNELS 6 Xposition Yposition Zposition Xrotation Yrotation Zrotation
										End Site
										{
											OFFSET -7.540642 -0.000004 0.000000
										}
									}
								}
							}
						}
					}
					JOINT Junyuan_V1:Solving:LeftShoulder
					{
						OFFSET 0.000000 -9.273884 -6.154356
						CHANNELS 6 Xposition Yposition Zposition Xrotation Yrotation Zrotation
						JOINT Junyuan_V1:Solving:LeftArm
						{
							OFFSET 19.110832 -0.000008 0.000000
							CHANNELS 6 Xposition Yposition Zposition Xrotation Yrotation Zrotation
							JOINT Junyuan_V1:Solving:LeftForeArm
							{
								OFFSET 27.916382 -0.000008 0.000000
								CHANNELS 6 Xposition Yposition Zposition Xrotation Yrotation Zrotation
								JOINT Junyuan_V1:Solving:LeftHand
								{
									OFFSET 21.757072 -0.000008 0.000000
									CHANNELS 6 Xposition Yposition Zposition Xrotation Yrotation Zrotation
									JOINT Junyuan_V1:Solving:LeftHandThumb1
									{
										OFFSET 3.656471 2.766285 -2.718907
										CHANNELS 6 Xposition Yposition Zposition Xrotation Yrotation Zrotation
										End Site
										{
											OFFSET 5.307442 0.000000 -5.356520
										}
									}
									JOINT Junyuan_V1:Solving:LeftHandMiddle1
									{
										OFFSET 9.750572 -0.000004 0.062504
										CHANNELS 6 Xposition Yposition Zposition Xrotation Yrotation Zrotation
										End Site
										{
											OFFSET 7.540642 -0.000004 0.000000
										}
									}
								}
							}
						}
					}
				}
			}
		}
	}
	JOINT Junyuan_V1:Solving:RightUpLeg
	{
		OFFSET -8.521003 0.000000 0.000000
		CHANNELS 6 Xposition Yposition Zposition Xrotation Yrotation Zrotation
		JOINT Junyuan_V1:Solving:RightLeg
		{
			OFFSET 0.000000 41.622898 -0.000006
			CHANNELS 6 Xposition Yposition Zposition Xrotation Yrotation Zrotation
			JOINT Junyuan_V1:Solving:RightFoot
			{
				OFFSET 0.000000 37.258389 -0.000006
				CHANNELS 6 Xposition Yposition Zposition Xrotation Yrotation Zrotation
				JOINT Junyuan_V1:Solving:RightForeFoot
				{
					OFFSET 0.000000 3.234154 -0.000000
					CHANNELS 6 Xposition Yposition Zposition Xrotation Yrotation Zrotation
					JOINT Junyuan_V1:Solving:RightToeBase
					{
						OFFSET 0.000000 0.000000 -12.665958
						CHANNELS 6 Xposition Yposition Zposition Xrotation Yrotation Zrotation
						JOINT Junyuan_V1:Solving:RightToeBaseEnd
						{
							OFFSET 0.000000 0.000000 -2.833065
							CHANNELS 6 Xposition Yposition Zposition Xrotation Yrotation Zrotation
							End Site
							{
								OFFSET 0.000000 -2.833061 0.000002
							}
						}
					}
				}
			}
		}
	}
	JOINT Junyuan_V1:Solving:LeftUpLeg
	{
		OFFSET 8.521003 0.000000 0.000000
		CHANNELS 6 Xposition Yposition Zposition Xrotation Yrotation Zrotation
		JOINT Junyuan_V1:Solving:LeftLeg
		{
			OFFSET 0.000000 41.622898 -0.000006
			CHANNELS 6 Xposition Yposition Zposition Xrotation Yrotation Zrotation
			JOINT Junyuan_V1:Solving:LeftFoot
			{
				OFFSET 0.000000 37.258389 -0.000006
				CHANNELS 6 Xposition Yposition Zposition Xrotation Yrotation Zrotation
				JOINT Junyuan_V1:Solving:LeftForeFoot
				{
					OFFSET 0.000000 3.234154 -0.000000
					CHANNELS 6 Xposition Yposition Zposition Xrotation Yrotation Zrotation
					JOINT Junyuan_V1:Solving:LeftToeBase
					{
						OFFSET 0.000000 0.000000 -12.665958
						CHANNELS 6 Xposition Yposition Zposition Xrotation Yrotation Zrotation
						JOINT Junyuan_V1:Solving:LeftToeBaseEnd
						{
							OFFSET 0.000000 0.000000 -4.326123
							CHANNELS 6 Xposition Yposition Zposition Xrotation Yrotation Zrotation
							End Site
							{
								OFFSET 0.000000 -4.326126 0.000000
							}
						}
					}
				}
			}
		}
	}
}
MOTION
Frames: 5
Frame Time: 0.041667
-10.511286 27.413300 -88.042557 86.586793 155.203386 2.971821 0.000005 -8.943192 2.778126 9.118762 0.137631 4.138220 0.000004 -9.944803 1.753536 -1.390423 -0.256016 0.741056 -0.000002 -10.059795 0.880121 -5.790876 -4.846835 0.126538 0.000002 -10.098223 0.000002 -4.796393 -0.762603 1.126899 -0.000004 -12.983440 -1.298358 4.685986 6.043169 2.205689 0.000000 -8.085085 -0.707359 -3.452651 23.080328 0.082303 0.000001 -7.992685 -1.409323 0.640232 3.568858 -4.975158 -0.000004 -9.728142 -0.000001 0.000000 -0.000000 -0.000000 -0.000004 -9.273884 -6.154367 -0.000008 17.206642 24.680395 -19.110821 0.000002 0.000006 -61.289623 -29.448917 -108.686601 -27.916378 0.000008 0.000001 79.511953 -47.808869 75.971279 -21.757067 -0.000001 -0.000001 -0.052695 -0.432705 -6.942755 -3.656471 2.766315 -2.718907 -0.000002 -0.000005 0.000000 -9.750570 0.000046 0.062503 -0.000001 -0.000000 0.000002 0.000001 -9.273880 -6.154369 -0.000009 -17.029576 -8.027214 19.110817 -0.000019 0.000014 -2.908454 32.187816 84.508271 27.916357 -0.000001 0.000006 17.601649 19.112558 -5.930373 21.757078 -0.000015 -0.000005 0.386009 -1.595448 13.602908 3.656505 2.766287 -2.718902 -0.000002 -0.000005 0.000004 9.750603 0.000005 0.062503 0.000000 -0.000003 0.000000 -8.521001 -0.000018 0.000006 -1.663109 17.297650 1.777015 0.000002 41.622906 -0.000011 -1.056405 0.000001 0.000001 0.000002 37.258389 -0.000012 5.705933 2.263973 1.001495 -0.000001 3.234139 0.000004 0.000000 0.000000 -0.000001 -0.000000 -0.000006 -12.665956 -23.944526 -0.000000 -0.000001 -0.000001 -0.000009 -2.833066 -0.000004 0.000001 -0.000000 8.521007 -0.000015 0.000003 0.550493 6.660478 -8.808191 0.000004 41.622894 0.000000 -2.700895 -0.000002 0.000001 0.000007 37.258415 -0.000001 6.815801 12.991520 9.542006 -0.000000 3.234146 -0.000014 -0.000000 0.000000 0.000000 -0.000002 -0.000001 -12.665962 4.744097 -0.000000 0.000001 0.000002 -0.000008 -4.326121 -0.000001 0.000001 0.000000 
-10.521285 27.423944 -88.043129 86.606252 155.202867 2.969169 -0.000001 -8.943209 2.778121 9.106588 0.116055 4.229866 -0.000001 -9.944799 1.753543 -1.385843 -0.278558 0.759336 -0.000003 -10.059801 0.880115 -5.786439 -5.026828 0.078336 -0.000004 -10.098258 0.000001 -4.794753 -0.917266 0.885980 -0.000000 -12.983438 -1.298334 4.699346 6.396736 2.427730 0.000000 -8.085100 -0.707350 -3.444896 23.121336 0.055742 -0.000001 -7.992713 -1.409317 0.618895 3.592671 -5.029874 0.000003 -9.728050 -0.000001 0.000000 -0.000000 0.000001 -0.000001 -9.273880 -6.154351 -0.000012 17.462818 24.840343 -19.110834 -0.000008 0.000007 -61.154932 -29.789679 -108.573937 -27.916389 -0.000017 0.000000 79.536685 -47.825920 76.007417 -21.757065 -0.000013 0.000002 -0.008963 -0.078853 -6.486766 -3.656471 2.766272 -2.718909 -0.000008 0.000002 -0.000000 -9.750577 0.000003 0.062503 -0.000002 0.000002 0.000003 0.000003 -9.273876 -6.154348 -0.000008 -16.721485 -7.798675 19.110828 -0.000034 0.000015 -2.929815 32.114921 84.576771 27.916374 0.000004 -0.000004 17.758886 19.005862 -5.954525 21.757055 -0.000010 0.000003 0.385811 -1.612191 13.460317 3.656443 2.766271 -2.718904 -0.000003 -0.000002 0.000003 9.750557 -0.000011 0.062509 0.000001 0.000003 0.000000 -8.521006 -0.000014 0.000005 -1.663801 17.301591 1.784380 0.000001 41.622906 0.000003 -1.030072 -0.000000 -0.000000 -0.000001 37.258396 -0.000014 5.726036 2.252183 1.020377 -0.000000 3.234146 0.000006 -0.000000 0.000001 -0.000000 0.000000 0.000003 -12.665956 -23.998153 0.000001 0.000001 -0.000000 -0.000007 -2.833069 0.000002 -0.000001 0.000000 8.521003 -0.000017 0.000000 0.551371 6.648965 -8.803801 0.000012 41.622894 -0.000000 -2.677696 -0.000001 0.000001 0.000005 37.258400 -0.000008 6.797428 13.003417 9.553883 0.000001 3.234146 0.000001 -0.000003 0.000001 -0.000000 -0.000000 0.000006 -12.665963 4.758533 0.000000 -0.000001 -0.000002 -0.000008 -4.326123 -0.000001 -0.000000 0.000000 
-10.527681 27.430647 -88.042259 86.627617 155.197949 2.974032 0.000005 -8.943163 2.778121 9.103058 0.105624 4.263910 -0.000004 -9.944819 1.753546 -1.380853 -0.289893 0.769142 0.000005 -10.059796 0.880118 -5.781756 -5.127438 0.056044 -0.000001 -10.098247 0.000003 -4.786423 -0.990643 0.798547 0.000006 -12.983418 -1.298340 4.720070 6.553973 2.551831 0.000004 -8.085121 -0.707348 -3.461829 23.172009 0.013367 0.000005 -7.992674 -1.409328 0.617559 3.609455 -5.063573 0.000001 -9.728111 0.000001 -0.000000 -0.000000 0.000000 0.000001 -9.273888 -6.154355 -0.000009 17.583359 24.908028 -19.110828 0.000010 0.000006 -61.148539 -30.123924 -108.562653 -27.916388 0.000024 0.000010 79.467981 -47.595053 75.867535 -21.757072 0.000002 -0.000001 0.011444 0.110735 -5.900288 -3.656465 2.766253 -2.718901 0.000000 0.000007 -0.000001 -9.750577 0.000011 0.062513 0.000002 0.000003 0.000003 0.000003 -9.273884 -6.154356 -0.000007 -16.603350 -7.683320 19.110821 0.000009 0.000008 -2.962082 32.061475 84.577556 27.916372 0.000003 0.000007 17.766592 18.944506 -5.938869 21.757074 -0.000001 0.000013 0.392708 -1.654605 13.353765 3.656476 2.766294 -2.718902 -0.000003 -0.000002 0.000006 9.750579 0.000003 0.062506 -0.000002 0.000004 -0.000001 -8.521000 0.000020 0.000003 -1.654152 17.318433 1.777462 -0.000002 41.622890 -0.000004 -1.014605 0.000000 -0.000001 -0.000001 37.258392 -0.000005 5.768385 2.229353 1.092079 -0.000000 3.234146 -0.000002 0.000001 0.000001 0.000001 0.000002 -0.000008 -12.665956 -23.985446 0.000002 -0.000001 -0.000000 -0.000008 -2.833067 -0.000001 0.000000 -0.000000 8.521007 0.000021 0.000001 0.560932 6.643477 -8.810619 -0.000001 41.622887 -0.000011 -2.662840 -0.000004 0.000001 0.000007 37.258366 -0.000008 6.781560 13.001618 9.564865 0.000006 3.234146 -0.000007 -0.000003 -0.000000 0.000001 0.000002 0.000006 -12.665962 4.765149 0.000000 -0.000000 0.000001 -0.000007 -4.326126 0.000002 -0.000000 -0.000000 
-10.534041 27.437113 -88.041573 86.638757 155.192444 2.982719 0.000006 -8.943189 2.778121 9.095630 0.100047 4.270694 0.000000 -9.944830 1.753545 -1.376595 -0.294231 0.770956 0.000000 -10.059806 0.880121 -5.782617 -5.188329 0.050957 -0.000001 -10.098229 0.000004 -4.778051 -1.019358 0.786576 -0.000002 -12.983478 -1.298338 4.713293 6.604839 2.599758 0.000004 -8.085095 -0.707359 -3.444082 23.230450 0.012224 -0.000001 -7.992697 -1.409332 0.607680 3.610854 -5.059164 0.000001 -9.728096 0.000001 -0.000000 -0.000000 0.000000 -0.000003 -9.273926 -6.154350 -0.000009 17.624740 24.911172 -19.110813 -0.000022 0.000004 -61.154515 -30.365085 -108.624275 -27.916424 -0.000002 -0.000007 79.505540 -46.891615 75.762733 -21.757065 -0.000002 0.000003 0.010834 0.116131 -5.330889 -3.656468 2.766280 -2.718896 -0.000001 0.000005 -0.000005 -9.750586 -0.000005 0.062514 -0.000001 -0.000000 0.000003 0.000005 -9.273907 -6.154351 -0.000006 -16.580180 -7.618487 19.110826 -0.000015 0.000012 -2.974992 32.000567 84.533119 27.916367 -0.000015 -0.000002 17.712014 18.918939 -5.911906 21.757040 -0.000019 -0.000007 0.402080 -1.706052 13.263499 3.656459 2.766276 -2.718910 0.000001 -0.000005 0.000003 9.750579 -0.000011 0.062506 -0.000002 -0.000001 -0.000001 -8.521001 -0.000010 -0.000001 -1.650234 17.331911 1.770530 -0.000001 41.622879 -0.000003 -1.005946 0.000002 -0.000001 0.000000 37.258385 -0.000002 5.813618 2.201744 1.178006 0.000000 3.234146 -0.000005 -0.000000 0.000001 -0.000001 0.000001 0.000016 -12.665958 -23.952915 0.000000 -0.000000 0.000000 0.000000 -2.833061 0.000001 -0.000000 -0.000000 8.521008 -0.000008 0.000002 0.561220 6.625655 -8.815754 -0.000001 41.622890 -0.000008 -2.652169 0.000003 -0.000001 -0.000002 37.258385 -0.000007 6.766806 13.016627 9.566124 0.000002 3.234146 -0.000006 -0.000001 0.000001 0.000000 -0.000000 -0.000006 -12.665958 4.772990 -0.000000 -0.000001 0.000001 -0.000008 -4.326122 0.000000 -0.000000 0.000001 
-10.530866 27.436668 -88.040215 86.655047 155.176516 3.003773 -0.000001 -8.943180 2.778123 9.116375 0.122197 4.139507 0.000002 -9.944806 1.753541 -1.370654 -0.273536 0.762408 0.000005 -10.059798 0.880121 -5.784722 -5.049598 0.119714 -0.000000 -10.098223 0.000006 -4.762287 -0.848275 1.132213 -0.000006 -12.983459 -1.298346 4.689242 6.187455 2.320206 0.000003 -8.085143 -0.707357 -3.455747 23.257931 0.066124 -0.000000 -7.992682 -1.409320 0.614702 3.603551 -5.033205 -0.000001 -9.728065 0.000005 -0.000001 -0.000000 0.000000 -0.000010 -9.273907 -6.154363 -0.000005 17.255839 24.661081 -19.110821 -0.000026 0.000008 -61.258689 -30.509137 -108.979739 -27.916370 -0.000011 0.000003 79.544397 -45.690178 75.539181 -21.757082 0.000014 0.000000 -0.001725 -0.021555 -4.578397 -3.656465 2.766287 -2.718905 -0.000001 -0.000000 -0.000002 -9.750565 0.000005 0.062503 0.000002 -0.000002 -0.000000 -0.000007 -9.273903 -6.154364 -0.000006 -17.002346 -7.835690 19.110819 -0.000019 0.000012 -3.001949 31.969896 84.327954 27.916365 0.000002 -0.000001 17.562879 18.969595 -5.874227 21.757067 -0.000013 0.000002 0.411517 -1.737762 13.324972 3.656470 2.766276 -2.718910 0.000001 -0.000002 0.000008 9.750566 0.000000 0.062500 0.000000 0.000004 0.000001 -8.521002 0.000015 0.000006 -1.626137 17.357324 1.738020 0.000002 41.622906 -0.000005 -1.016910 0.000003 -0.000002 0.000000 37.258404 -0.000006 5.906770 2.171300 1.307550 -0.000000 3.234146 0.000003 0.000001 0.000001 0.000000 0.000002 0.000025 -12.665954 -23.754044 0.000002 0.000001 -0.000000 -0.000001 -2.833064 -0.000002 -0.000000 -0.000001 8.521001 -0.000009 0.000005 0.573974 6.600236 -8.845777 0.000003 41.622890 0.000000 -2.654223 0.000005 0.000001 0.000013 37.258381 0.000001 6.751126 13.047800 9.590548 -0.000006 3.234146 -0.000011 -0.000001 -0.000001 0.000001 0.000008 0.000007 -12.665966 4.796461 0.000001 -0.000000 -0.000005 -0.000007 -4.326115 0.000000 -0.000000 0.000000 
